<svg width="696" height="697" viewBox="0 0 696 697" fill="none" xmlns="http://www.w3.org/2000/svg">
<path d="M622.05 142.74L621.05 424.51C620.981 442.274 613.86 459.284 601.253 471.799C588.646 484.315 571.584 491.311 553.82 491.25H549.18C540.298 491.217 531.498 492.951 523.292 496.351C515.086 499.751 507.638 504.748 501.381 511.052C495.124 517.357 490.183 524.842 486.846 533.074C483.508 541.305 481.841 550.118 481.94 559V562.15C482.035 571.009 480.372 579.799 477.048 588.011C473.724 596.223 468.804 603.694 462.573 609.992C456.342 616.29 448.923 621.29 440.747 624.702C432.571 628.114 423.799 629.87 414.94 629.87H411.44C402.611 629.87 393.869 628.125 385.717 624.735C377.564 621.346 370.162 616.378 363.936 610.119C357.71 603.859 352.782 596.431 349.436 588.26C346.091 580.09 344.393 571.339 344.44 562.51L345.22 420.45C345.266 411.634 343.572 402.895 340.234 394.735C336.896 386.575 331.981 379.154 325.77 372.897C319.558 366.64 312.173 361.671 304.038 358.273C295.902 354.876 287.176 353.118 278.36 353.1L206.36 352.97C169.624 352.877 134.425 338.215 108.486 312.201C82.5468 286.187 67.9867 250.946 68 214.21V214.21C68 177.424 82.613 142.145 108.624 116.134C134.636 90.1228 169.914 75.5098 206.7 75.5098H555.07C563.886 75.5123 572.615 77.2549 580.757 80.6375C588.898 84.0201 596.292 88.9763 602.515 95.2219C608.737 101.468 613.666 108.88 617.018 117.034C620.37 125.188 622.08 133.924 622.05 142.74V142.74Z" fill="#00684A"/>
<path d="M455.23 219.26V251.55" stroke="#001E2B" stroke-miterlimit="10"/>
<path d="M239.72 295.8L214.34 297.8L213 281.33C212 268.46 201.46 258.76 189.56 259.71C177.66 260.66 168.82 271.9 169.85 284.77L171 299.1L145.62 301.1L144.49 286.8C142.34 259.94 161.66 236.4 187.56 234.33C213.46 232.26 236.26 252.44 238.4 279.33L239.72 295.8Z" fill="#081E2A"/>
<path d="M249.59 295L224.21 297L222.89 280.5C221.89 267.63 211.35 257.93 199.45 258.88C187.55 259.83 178.71 271.11 179.74 284L180.88 298.32L155.5 300.32L154.36 286C152.21 259.14 171.53 235.6 197.42 233.53C223.31 231.46 246.13 251.64 248.27 278.53L249.59 295Z" fill="#D7F4EB" stroke="#001E2B" stroke-miterlimit="10"/>
<path d="M151.88 392.86L270.44 383.39L263.05 290.85C263.05 290.85 241.87 281.97 202.93 285.07C163.99 288.17 144.49 300.31 144.49 300.31L151.88 392.86Z" fill="#D7F4EB" stroke="#081E2A" stroke-miterlimit="10"/>
<path d="M144.5 300.31L131.15 309.77L137.88 393.98L151.89 392.86L144.5 300.31Z" fill="#001E2B" stroke="#081E2A" stroke-miterlimit="10"/>
<path d="M211.21 336.27L207.05 336.6L202.89 336.93L200.52 359.78L208.85 359.11L217.17 358.45L211.21 336.27Z" fill="#001E2B"/>
<path d="M206.41 339.89C212.645 339.89 217.7 334.835 217.7 328.6C217.7 322.365 212.645 317.31 206.41 317.31C200.175 317.31 195.12 322.365 195.12 328.6C195.12 334.835 200.175 339.89 206.41 339.89Z" fill="#001E2B"/>
<path d="M233.54 285V319.77C233.54 327.2 236.4 335.69 247.03 342.08C239.35 346.08 233.54 348.72 233.54 354.68V374.92L275.04 372.39V291.15L233.54 285Z" fill="#001E2B"/>
<path d="M478.17 221.51L404.9 362.65L512.44 418.48L566.3 314.73L548.32 257.93L478.17 221.51Z" fill="white" stroke="#081E2A" stroke-miterlimit="10"/>
<path d="M566.3 314.73L548.32 257.93L528.91 295.32L566.3 314.73Z" fill="white" stroke="#081E2A" stroke-linejoin="round"/>
<path d="M545.17 264L480.48 230.42L413.13 360.16L509.42 410.15L560.52 311.72L528.91 295.32L545.17 264Z" fill="#D7F4EB" stroke="#081E2A" stroke-miterlimit="10"/>
<path d="M533.06 297.47L526.18 304.35L566.3 314.73L533.06 297.47Z" fill="#081E2A"/>
<path d="M485.398 250.957L537.76 278.145L535.728 282.059L483.366 254.87C483.107 254.739 482.877 254.558 482.689 254.338C482.501 254.118 482.358 253.862 482.269 253.587C482.179 253.311 482.145 253.021 482.169 252.732C482.192 252.443 482.272 252.162 482.404 251.904C482.673 251.386 483.137 250.996 483.693 250.82C484.25 250.644 484.853 250.696 485.371 250.965L485.398 250.957Z" fill="#00ED64" stroke="#081E2A" stroke-miterlimit="10"/>
<path d="M518.529 289.967L476.479 268.133C475.401 267.573 474.073 267.993 473.513 269.072L473.508 269.081C472.949 270.159 473.369 271.487 474.447 272.047L516.497 293.88C517.575 294.44 518.903 294.02 519.463 292.942L519.467 292.933C520.027 291.855 519.607 290.526 518.529 289.967Z" fill="#00ED64" stroke="#081E2A" stroke-miterlimit="10"/>
<path d="M534.879 322.76L466.542 287.277C465.463 286.717 464.135 287.137 463.575 288.215L463.571 288.224C463.011 289.302 463.431 290.63 464.509 291.19L532.846 326.673C533.925 327.233 535.253 326.813 535.813 325.735L535.817 325.726C536.377 324.648 535.957 323.32 534.879 322.76Z" fill="#00ED64" stroke="#081E2A" stroke-miterlimit="10"/>
<path d="M515.004 361.036L446.667 325.553C445.588 324.993 444.26 325.414 443.701 326.492L443.696 326.501C443.136 327.579 443.556 328.907 444.635 329.467L512.972 364.95C514.05 365.51 515.378 365.09 515.938 364.012L515.943 364.003C516.502 362.924 516.082 361.596 515.004 361.036Z" fill="#00ED64" stroke="#081E2A" stroke-miterlimit="10"/>
<path d="M492.624 325.125L456.601 306.42C455.522 305.86 454.194 306.28 453.634 307.359L453.63 307.368C453.07 308.446 453.49 309.774 454.568 310.334L490.592 329.039C491.67 329.598 492.998 329.178 493.558 328.1L493.563 328.091C494.123 327.013 493.702 325.685 492.624 325.125Z" fill="#00ED64" stroke="#081E2A" stroke-miterlimit="10"/>
<path d="M524.938 341.892L505.768 331.939C504.69 331.379 503.362 331.799 502.802 332.877L502.797 332.886C502.237 333.964 502.657 335.293 503.736 335.852L522.906 345.806C523.984 346.366 525.312 345.946 525.872 344.867L525.876 344.859C526.436 343.78 526.016 342.452 524.938 341.892Z" fill="#00ED64" stroke="#081E2A" stroke-miterlimit="10"/>
<path d="M455.895 354.642L436.725 344.688C435.647 344.128 434.319 344.548 433.759 345.627L433.754 345.636C433.194 346.714 433.615 348.042 434.693 348.602L453.863 358.556C454.941 359.116 456.269 358.695 456.829 357.617L456.834 357.608C457.394 356.53 456.973 355.202 455.895 354.642Z" fill="#081E2A" stroke="#081E2A" stroke-miterlimit="10"/>
<path d="M505.061 380.173L467.032 360.426C465.954 359.866 464.626 360.287 464.066 361.365L464.061 361.374C463.502 362.452 463.922 363.78 465 364.34L503.029 384.086C504.108 384.646 505.436 384.226 505.996 383.148L506 383.139C506.56 382.06 506.14 380.732 505.061 380.173Z" fill="#081E2A" stroke="#081E2A" stroke-miterlimit="10"/>
<path d="M455.23 149.73V185.39L489.31 167.56V132.44L455.23 149.73Z" fill="#001E2B" stroke="#001E2B" stroke-linejoin="round"/>
<path d="M455.23 150.27L421.16 132.44L455.23 114.6L489.31 132.44L455.23 150.27Z" fill="white" stroke="#001E2B" stroke-linejoin="round"/>
<path d="M455.23 185.39L421.16 167.56L455.23 149.73L489.31 167.56L455.23 185.39Z" fill="#001E2B" stroke="#001E2B" stroke-linejoin="round"/>
<path d="M421.16 132.44V167.56L455.23 185.39V149.73L421.16 132.44Z" fill="#00ED64" stroke="#001E2B" stroke-linejoin="round"/>
<path d="M296.64 143.12C296.64 142.89 296.64 142.67 296.64 142.44C296.634 127.778 291.595 113.563 282.365 102.172C273.134 90.7806 260.273 82.9039 245.931 79.8592C231.589 76.8145 216.636 78.7863 203.574 85.4449C190.512 92.1035 180.132 103.045 174.17 116.44C168.076 115.735 161.902 116.28 156.025 118.04C150.149 119.801 144.692 122.741 139.99 126.68C135.287 130.62 131.436 135.476 128.673 140.953C125.91 146.431 124.292 152.413 123.917 158.537C123.543 164.66 124.421 170.796 126.497 176.568C128.572 182.341 131.803 187.631 135.991 192.113C140.179 196.596 145.237 200.179 150.855 202.642C156.474 205.105 162.535 206.397 168.67 206.44H296.67C305.064 206.44 313.114 203.105 319.05 197.17C324.985 191.234 328.32 183.184 328.32 174.79C328.32 166.396 324.985 158.345 319.05 152.41C313.114 146.474 305.064 143.14 296.67 143.14L296.64 143.12Z" fill="#001E2B"/>
<path d="M296.64 143.12C296.64 142.89 296.64 142.67 296.64 142.44C296.634 127.778 291.595 113.563 282.365 102.172C273.134 90.7806 260.273 82.9039 245.931 79.8592C231.589 76.8145 216.636 78.7863 203.574 85.4449C190.512 92.1035 180.132 103.045 174.17 116.44C168.076 115.735 161.902 116.28 156.025 118.04C150.149 119.801 144.692 122.741 139.99 126.68C135.287 130.62 131.436 135.476 128.673 140.953C125.91 146.431 124.292 152.413 123.917 158.537C123.543 164.66 124.421 170.796 126.497 176.568C128.572 182.341 131.803 187.631 135.991 192.113C140.179 196.596 145.237 200.179 150.855 202.642C156.474 205.105 162.535 206.397 168.67 206.44H296.67C305.064 206.44 313.114 203.105 319.05 197.17C324.985 191.234 328.32 183.184 328.32 174.79C328.32 166.396 324.985 158.345 319.05 152.41C313.114 146.474 305.064 143.14 296.67 143.14L296.64 143.12Z" stroke="#001E2B" stroke-miterlimit="10"/>
<path d="M296.64 131.12C296.64 130.89 296.64 130.67 296.64 130.44C296.634 115.778 291.595 101.563 282.365 90.1719C273.134 78.7806 260.273 70.9039 245.931 67.8592C231.589 64.8145 216.636 66.7863 203.574 73.4449C190.512 80.1035 180.132 91.0451 174.17 104.44C168.076 103.735 161.902 104.28 156.025 106.04C150.149 107.801 144.692 110.741 139.99 114.68C135.287 118.62 131.436 123.476 128.673 128.953C125.91 134.431 124.292 140.413 123.917 146.537C123.543 152.66 124.421 158.796 126.497 164.568C128.572 170.341 131.803 175.631 135.991 180.113C140.179 184.596 145.237 188.179 150.855 190.642C156.474 193.105 162.535 194.397 168.67 194.44H296.67C305.064 194.44 313.114 191.105 319.05 185.17C324.985 179.234 328.32 171.184 328.32 162.79C328.32 154.396 324.985 146.345 319.05 140.41C313.114 134.474 305.064 131.14 296.67 131.14L296.64 131.12Z" fill="white"/>
<path d="M296.64 131.12C296.64 130.89 296.64 130.67 296.64 130.44C296.634 115.778 291.595 101.563 282.365 90.1719C273.134 78.7806 260.273 70.9039 245.931 67.8592C231.589 64.8145 216.636 66.7863 203.574 73.4449C190.512 80.1035 180.132 91.0451 174.17 104.44C168.076 103.735 161.902 104.28 156.025 106.04C150.149 107.801 144.692 110.741 139.99 114.68C135.287 118.62 131.436 123.476 128.673 128.953C125.91 134.431 124.292 140.413 123.917 146.537C123.543 152.66 124.421 158.796 126.497 164.568C128.572 170.341 131.803 175.631 135.991 180.113C140.179 184.596 145.237 188.179 150.855 190.642C156.474 193.105 162.535 194.397 168.67 194.44H296.67C305.064 194.44 313.114 191.105 319.05 185.17C324.985 179.234 328.32 171.184 328.32 162.79C328.32 154.396 324.985 146.345 319.05 140.41C313.114 134.474 305.064 131.14 296.67 131.14L296.64 131.12Z" stroke="#001E2B" stroke-miterlimit="10"/>
<path d="M419.24 224.23L367.06 374.45L481.53 414.2L519.88 303.78L493.91 250.16L419.24 224.23Z" fill="white" stroke="#081E2A" stroke-miterlimit="10"/>
<path d="M519.88 303.78L493.91 250.16L480.08 289.96L519.88 303.78Z" fill="white" stroke="#081E2A" stroke-linejoin="round"/>
<path d="M491.66 256.63L422.81 232.71L374.85 370.8L477.34 406.39L513.72 301.64L480.08 289.96L491.66 256.63Z" fill="#D7F4EB" stroke="#081E2A" stroke-miterlimit="10"/>
<path d="M484.5 291.49L478.68 299.29L519.88 303.78L484.5 291.49Z" fill="#081E2A"/>
<path d="M430.679 252.28L486.414 271.634L484.967 275.8L429.232 256.446C428.681 256.254 428.228 255.852 427.974 255.327C427.719 254.802 427.684 254.197 427.875 253.646V253.646C428.067 253.095 428.469 252.642 428.994 252.388C429.519 252.133 430.124 252.098 430.675 252.289L430.679 252.28Z" fill="#00ED64" stroke="#081E2A" stroke-miterlimit="10"/>
<path d="M469.086 286.106L424.328 270.563C423.18 270.164 421.926 270.772 421.528 271.92L421.525 271.929C421.126 273.077 421.733 274.33 422.881 274.729L467.639 290.272C468.787 290.67 470.041 290.063 470.439 288.915L470.442 288.906C470.841 287.758 470.234 286.504 469.086 286.106Z" fill="#00ED64" stroke="#081E2A" stroke-miterlimit="10"/>
<path d="M489.997 316.198L417.258 290.938C416.11 290.54 414.857 291.147 414.458 292.295L414.455 292.304C414.056 293.452 414.664 294.706 415.811 295.104L488.55 320.364C489.698 320.762 490.952 320.155 491.35 319.007L491.354 318.998C491.752 317.85 491.145 316.596 489.997 316.198Z" fill="#00ED64" stroke="#081E2A" stroke-miterlimit="10"/>
<path d="M475.842 356.951L403.103 331.692C401.955 331.293 400.702 331.901 400.303 333.048L400.3 333.058C399.901 334.206 400.509 335.459 401.657 335.858L474.396 361.117C475.543 361.516 476.797 360.908 477.195 359.761L477.199 359.751C477.597 358.603 476.99 357.35 475.842 356.951Z" fill="#00ED64" stroke="#081E2A" stroke-miterlimit="10"/>
<path d="M448.524 324.626L410.18 311.311C409.032 310.912 407.779 311.519 407.38 312.667L407.377 312.677C406.978 313.824 407.586 315.078 408.733 315.477L447.077 328.792C448.225 329.19 449.479 328.583 449.877 327.435L449.881 327.426C450.279 326.278 449.672 325.024 448.524 324.626Z" fill="#00ED64" stroke="#081E2A" stroke-miterlimit="10"/>
<path d="M482.91 336.57L462.505 329.484C461.357 329.085 460.104 329.693 459.705 330.84L459.702 330.85C459.303 331.998 459.911 333.251 461.059 333.65L481.463 340.736C482.611 341.134 483.865 340.527 484.263 339.379L484.267 339.37C484.665 338.222 484.058 336.968 482.91 336.57Z" fill="#00ED64" stroke="#081E2A" stroke-miterlimit="10"/>
<path d="M416.434 359.146L396.029 352.06C394.882 351.661 393.628 352.269 393.229 353.417L393.226 353.426C392.828 354.574 393.435 355.827 394.583 356.226L414.988 363.312C416.135 363.71 417.389 363.103 417.787 361.955L417.791 361.946C418.189 360.798 417.582 359.544 416.434 359.146Z" fill="#081E2A" stroke="#081E2A" stroke-miterlimit="10"/>
<path d="M468.767 377.313L428.288 363.256C427.14 362.858 425.887 363.465 425.488 364.613L425.485 364.622C425.086 365.77 425.693 367.024 426.841 367.422L467.32 381.479C468.468 381.878 469.721 381.27 470.12 380.122L470.123 380.113C470.522 378.965 469.915 377.712 468.767 377.313Z" fill="#081E2A" stroke="#081E2A" stroke-miterlimit="10"/>
<path d="M402 229.18V164.61C402 147.91 368.47 134.37 327.12 134.37C285.77 134.37 252.23 147.91 252.23 164.61V232.39L402 229.18Z" fill="#00ED64" stroke="#001E2B" stroke-miterlimit="10"/>
<path d="M327.15 262.63C368.505 262.63 402.03 249.091 402.03 232.39C402.03 215.689 368.505 202.15 327.15 202.15C285.795 202.15 252.27 215.689 252.27 232.39C252.27 249.091 285.795 262.63 327.15 262.63Z" fill="white" stroke="#001E2B" stroke-miterlimit="10"/>
<path d="M327.15 292.87C368.505 292.87 402.03 279.331 402.03 262.63C402.03 245.929 368.505 232.39 327.15 232.39C285.795 232.39 252.27 245.929 252.27 262.63C252.27 279.331 285.795 292.87 327.15 292.87Z" fill="#B1FF05" stroke="#001E2B" stroke-width="1.48" stroke-miterlimit="10"/>
<path d="M340.68 242.81V226.81C340.68 223.62 334.62 221.05 327.15 221.05C319.68 221.05 313.61 223.62 313.61 226.81V242.81H340.68Z" fill="#B1FF05" stroke="#001E2B" stroke-miterlimit="10"/>
<path d="M402 324V262.63C402 245.93 368.47 232.39 327.12 232.39C285.77 232.39 252.23 245.93 252.23 262.63V324H402Z" fill="#00ED64" stroke="#001E2B" stroke-miterlimit="10"/>
<path d="M327.15 354.22C368.505 354.22 402.03 340.681 402.03 323.98C402.03 307.279 368.505 293.74 327.15 293.74C285.795 293.74 252.27 307.279 252.27 323.98C252.27 340.681 285.795 354.22 327.15 354.22Z" fill="white" stroke="#001E2B" stroke-miterlimit="10"/>
<path d="M340.68 334.85V318.85C340.68 315.67 334.62 313.09 327.15 313.09C319.68 313.09 313.61 315.67 313.61 318.85V334.85H340.68Z" fill="#B1FF05" stroke="#081E2A" stroke-miterlimit="10"/>
<path d="M404.45 413.46V352.11C404.45 335.41 370.93 321.87 329.57 321.87C288.21 321.87 254.69 335.41 254.69 352.11V413.46H404.45Z" fill="#00ED64" stroke="#001E2B" stroke-miterlimit="10"/>
<path d="M252.26 385.33C252.26 368.62 285.79 355.08 327.15 355.08C368.51 355.08 402 368.62 402 385.33" stroke="#001E2B" stroke-miterlimit="10"/>
<path d="M252.26 292.15C252.26 275.45 285.79 261.91 327.15 261.91C368.51 261.91 402 275.45 402 292.15" stroke="#001E2B" stroke-miterlimit="10"/>
<path d="M252.26 199C252.26 182.3 285.79 168.76 327.15 168.76C368.51 168.76 402 182.28 402 199" fill="#00ED64"/>
<path d="M252.26 199C252.26 182.3 285.79 168.76 327.15 168.76C368.51 168.76 402 182.28 402 199" stroke="#001E2B" stroke-miterlimit="10"/>
<path d="M323.26 322V313.37C323.26 313.37 313.61 314.55 313.61 318.89V322.58L323.26 322Z" fill="#001E2B" stroke="#081E2A" stroke-width="0.52" stroke-miterlimit="10"/>
<path d="M323.26 232.19V221.52C323.26 221.52 313.61 222.7 313.61 227.04V232.64L323.26 232.19Z" fill="#001E2B" stroke="#001E2B" stroke-width="0.52" stroke-miterlimit="10"/>
<path d="M239.72 286.35V254.21C239.72 254.21 249.59 266.87 248.59 288.08C248.86 287.59 239.72 286.35 239.72 286.35Z" fill="#001E2B"/>
<path d="M455.23 170.68V207.49" stroke="#001E2B" stroke-miterlimit="10"/>
<path d="M275 142.9V210.67C275 210.67 254.77 217.3 252.31 230.14C252.31 229.95 252.22 172.85 252.22 167.66C252.22 162.47 252.53 157.1 260.31 151.08C264.73 147.574 269.692 144.812 275 142.9V142.9Z" fill="#001E2B"/>
<path d="M274.44 240.79V302.26C274.44 302.26 253.9 309.71 251.66 323.05C251.66 322.86 251.66 270.75 251.66 265.56C251.66 260.37 252 255 259.75 249C264.171 245.488 269.132 242.715 274.44 240.79Z" fill="#001E2B"/>
<path d="M273.88 331.9V372.45L254.69 373.45V356.85C254.69 349.34 255.69 345.18 260.33 340.58C264.97 335.98 273.88 331.9 273.88 331.9Z" fill="#001E2B"/>
<path d="M434.94 528.16C435.198 527.338 435.398 526.499 435.54 525.65C436.8 525.68 437.08 526.21 434.94 528.16Z" fill="#001E2B"/>
<path d="M388.64 570.27C387.99 570.97 386.56 573.14 387.45 573.76C388.34 574.38 390.73 572.56 390.73 572.56L388.64 570.27Z" fill="#001E2B"/>
<path d="M337.77 425.62C250.05 425.62 171.52 418.02 142.35 406.7H142.17H130.87V397.7C130.87 390.5 152.87 383.36 191.19 378.11C230.34 372.74 282.4 369.79 337.77 369.79C393.14 369.79 445.21 372.74 484.36 378.11C522.69 383.36 544.68 390.5 544.68 397.7V406.7H533.38H533.2C504 418 425.5 425.62 337.77 425.62Z" fill="#00ED64"/>
<path d="M337.77 370.3C393.13 370.3 445.17 373.25 484.29 378.61C521.79 383.75 544.18 390.89 544.18 397.71V406.17H533.38C533.257 406.168 533.134 406.192 533.02 406.24C503.9 417.53 425.44 425.12 337.77 425.12C250.1 425.12 171.65 417.53 142.53 406.24C142.416 406.192 142.294 406.168 142.17 406.17H131.37V397.71C131.37 390.89 153.76 383.71 191.26 378.61C230.38 373.25 282.42 370.3 337.77 370.3ZM337.77 369.3C223.23 369.3 130.37 382.02 130.37 397.71V407.17H142.17C170.63 418.17 247.45 426.12 337.77 426.12C428.09 426.12 504.92 418.21 533.38 407.17H545.18V397.71C545.18 382.02 452.32 369.3 337.77 369.3Z" fill="#001E2B"/>
<path d="M337.77 435.08C282.4 435.08 230.34 432.08 191.19 426.76C152.86 421.51 130.87 414.37 130.87 407.17C130.87 399.97 152.87 392.83 191.19 387.58C230.34 382.22 282.4 379.26 337.77 379.26C393.14 379.26 445.21 382.26 484.36 387.58C522.69 392.83 544.68 399.97 544.68 407.17C544.68 414.37 522.68 421.51 484.36 426.76C445.21 432.12 393.15 435.08 337.77 435.08Z" fill="#081E2A"/>
<path d="M337.77 379.76C393.13 379.76 445.17 382.71 484.29 388.07C521.79 393.21 544.18 400.35 544.18 407.17C544.18 413.99 521.79 421.17 484.29 426.27C445.17 431.63 393.13 434.58 337.77 434.58C282.41 434.58 230.38 431.63 191.26 426.27C153.76 421.13 131.37 413.99 131.37 407.17C131.37 400.35 153.76 393.17 191.26 388.07C230.38 382.71 282.42 379.76 337.77 379.76ZM337.77 378.76C223.23 378.76 130.37 391.48 130.37 407.17C130.37 422.86 223.23 435.58 337.77 435.58C452.31 435.58 545.18 422.86 545.18 407.17C545.18 391.48 452.32 378.76 337.77 378.76Z" fill="#001E2B"/>
<path d="M395.36 593.71L445.87 530L481.45 559.7V562.12C481.649 576.257 477.316 590.086 469.085 601.582C460.854 613.077 449.158 621.635 435.71 626L395.36 593.71Z" fill="#001E2B"/>
<path d="M446 530.69L481 559.92V562.11C481.197 576.344 476.746 590.255 468.32 601.73C460.194 612.792 448.851 621.076 435.84 625.45L396.09 593.63L446 530.69ZM445.85 529.26L394.71 593.79L435.66 626.57C449.247 622.166 461.072 613.536 469.408 601.938C477.744 590.34 482.156 576.382 482 562.1V559.45L445.8 529.26H445.85Z" fill="#001E2B"/>
<path d="M445.41 529.61C447.02 530.88 446.68 534.38 444.77 539.25C444.12 538.34 443.51 537.4 442.93 536.44L439.3 530.44C442.09 529.06 444.28 528.73 445.41 529.61Z" fill="#001E2B"/>
<path d="M442.93 536.44C443.51 537.44 444.12 538.34 444.77 539.25C442.44 545.25 437.77 553.41 431.43 562.05H429.84L424.69 540.05C424.69 540.05 430.69 533.46 434.11 529.68C435.11 528.53 435.95 527.68 436.26 527.28C436.57 526.88 436.76 526.41 436.65 526.14L439.3 530.5L442.93 536.44Z" fill="white"/>
<path d="M436.62 526.06C436.73 526.33 436.67 526.7 436.23 527.2C435.79 527.7 435.12 528.45 434.08 529.6C434.721 528.244 435.149 526.797 435.35 525.31V525.31C435.35 525.31 436.36 525.51 436.62 526.06Z" fill="white"/>
<path d="M376.57 476.43L376.65 476.33C383.37 475.67 391.95 456.33 392 445.59C392.05 434.85 393.44 428.94 397.24 421.02C398.354 418.756 399.97 416.776 401.965 415.23C403.959 413.685 406.28 412.614 408.75 412.1C414.34 411.03 416.21 411.83 417.56 412.38C420.56 413.57 421.97 414.6 418.42 420.26C415.236 425.633 414.117 431.982 415.27 438.12C416.27 443.76 417.4 448.62 415.65 456.12C414.65 460.46 414.98 476.77 422.24 490.12C428.58 501.82 436.85 514.94 435.36 525.33C435.159 526.817 434.731 528.263 434.09 529.62V529.62C430.68 533.4 424.67 539.99 424.67 539.99L429.82 561.99H402.5C399.413 565.418 396.07 568.607 392.5 571.53C392.01 571.94 391.56 572.29 391.15 572.59L390.94 572.32C390.32 571.71 389.49 570.92 388.49 569.96C375.84 557.71 335.94 518.68 331.64 511.54C327 503.84 317.28 488.86 311.04 482.89C304.8 476.92 293.95 468.79 290.65 461.13C287.35 453.47 275.33 433.76 267.65 423.96C259.97 414.16 258.99 411.75 259.28 408.36C259.71 403.28 266.71 405.05 273.36 405.26L273.86 405.31C273.991 404.215 274.524 403.208 275.355 402.484C276.187 401.759 277.258 401.37 278.36 401.39C283.24 401.48 291.28 401.7 297 408.05C297.61 408.73 298.33 409.63 299.14 410.71C305.96 419.76 319.06 441.33 324.07 447C329.67 453.35 333 456.77 337.6 457.4L338.6 457.47C338.923 455.075 339.116 452.665 339.18 450.25C339.71 433.37 335.48 412.45 334.02 407.38C331.8 399.65 342.36 401.97 343.86 402.29C349.37 403.52 354.42 410.29 357.37 423.23C360.32 436.17 366.48 468.33 376.13 476.07L376.57 476.43Z" fill="white"/>
<path d="M429.84 562.05H431.43C430.18 563.76 428.87 565.5 427.5 567.24C419.37 577.59 411.03 585.91 404.71 590.4L396.38 582.52L387.38 574.05C387.88 574.44 389.05 574.18 391.15 572.63C391.56 572.33 392.01 571.98 392.5 571.57C396.07 568.647 399.413 565.458 402.5 562.03L429.84 562.05Z" fill="white"/>
<path d="M396.38 582.52L404.71 590.4C400.25 593.58 396.8 594.84 395.16 593.54C393.52 592.24 393.98 588.13 396.35 582.54L396.38 582.52Z" fill="#001E2B"/>
<path d="M391 572.36L391.21 572.63C389.11 574.18 387.94 574.44 387.44 574.05C386.8 573.45 387.44 571.6 388.58 570.05C389.53 571 390.36 571.75 391 572.36Z" fill="white"/>
<path d="M339.22 450.29C339.156 452.705 338.963 455.115 338.64 457.51L337.64 457.44C333.04 456.81 329.71 453.39 324.11 447.04C319.11 441.37 306 419.8 299.18 410.75L299.67 410.39C304.11 410.32 313.01 409.94 316.8 416.05C320.59 422.16 335 443.9 339.22 450.29Z" fill="#001E2B"/>
<path d="M439.3 530.46C442.09 529.06 444.3 528.73 445.41 529.61C447.02 530.88 446.68 534.38 444.77 539.25C442.44 545.25 437.77 553.41 431.43 562.05C430.18 563.76 428.87 565.5 427.5 567.24C419.37 577.59 411.03 585.91 404.71 590.4C400.25 593.58 396.8 594.84 395.16 593.54C393.52 592.24 393.98 588.13 396.35 582.54" stroke="#001E2B" stroke-linecap="round" stroke-linejoin="round"/>
<path d="M299.68 410.39C304.12 410.32 313.02 409.94 316.81 416.05C320.6 422.16 335 443.9 339.22 450.29" stroke="#001E2B" stroke-linecap="round" stroke-linejoin="round"/>
<path d="M391 572.36C390.38 571.75 389.55 570.96 388.55 570C375.9 557.75 336 518.72 331.7 511.58C327.06 503.88 317.34 488.9 311.1 482.93C304.86 476.96 294.01 468.83 290.71 461.17C287.41 453.51 275.39 433.8 267.71 424C260.03 414.2 259.05 411.79 259.34 408.4C259.77 403.32 266.77 405.09 273.42 405.3" stroke="#001E2B" stroke-linecap="round" stroke-linejoin="round"/>
<path d="M337.65 457.44C333.05 456.81 329.72 453.39 324.12 447.04C319.12 441.37 306.01 419.8 299.19 410.75C298.38 409.67 297.66 408.75 297.05 408.09C291.33 401.74 283.29 401.52 278.41 401.43C277.307 401.41 276.237 401.8 275.405 402.524C274.574 403.248 274.041 404.255 273.91 405.35C273.849 407.167 274.367 408.957 275.39 410.46C279.21 416.99 290.39 433.61 294.6 443.23C298.81 452.85 305.6 468.85 309.88 472.78" stroke="#001E2B" stroke-linecap="round" stroke-linejoin="round"/>
<path d="M434.09 529.63C434.731 528.274 435.159 526.827 435.36 525.34C436.85 514.95 428.58 501.83 422.24 490.13C414.98 476.74 414.64 460.43 415.65 456.13C417.4 448.66 416.22 443.8 415.27 438.13C414.117 431.992 415.236 425.643 418.42 420.27C421.97 414.61 420.53 413.58 417.56 412.39C416.21 411.84 414.34 411.04 408.75 412.11C406.282 412.621 403.964 413.687 401.97 415.227C399.975 416.768 398.358 418.742 397.24 421C393.44 428.92 392.06 434.84 392 445.57C391.94 456.3 383.37 475.65 376.65 476.31" stroke="#001E2B" stroke-linecap="round" stroke-linejoin="round"/>
<path d="M387.39 574C386.75 573.4 387.39 571.55 388.53 570" stroke="#001E2B" stroke-linecap="round" stroke-linejoin="round"/>
<path d="M438.42 562.06H429.84H402.52C399.433 565.488 396.09 568.678 392.52 571.6C392.03 572.01 391.58 572.36 391.17 572.66C389.07 574.21 387.9 574.47 387.4 574.08" stroke="#001E2B" stroke-linecap="round" stroke-linejoin="round"/>
<path d="M436.62 526.06C436.36 525.51 435.4 525.35 435.4 525.35" stroke="#001E2B" stroke-linecap="round" stroke-linejoin="round"/>
<path d="M429.84 562.05L424.69 540.05C424.69 540.05 430.69 533.46 434.11 529.68C435.11 528.53 435.95 527.68 436.26 527.28C436.57 526.88 436.76 526.41 436.65 526.14" stroke="#001E2B" stroke-linecap="round" stroke-linejoin="round"/>
<path d="M436.58 526V526.09L439.23 530.45L442.86 536.45C443.44 537.45 444.05 538.35 444.7 539.26C446.469 541.798 448.457 544.177 450.64 546.37L458.81 554.52" stroke="#001E2B" stroke-linecap="round" stroke-linejoin="round"/>
<path d="M387.39 574.01L387.42 574.05L396.38 582.52L404.71 590.4L419.33 604.23" stroke="#001E2B" stroke-linecap="round" stroke-linejoin="round"/>
<path d="M413.16 522.58C411.16 508.07 386.5 484.5 376.57 476.43L376.17 476.11C366.52 468.37 360.37 436.2 357.41 423.27C354.45 410.34 349.41 403.56 343.9 402.33C342.4 402.01 331.84 399.69 334.06 407.42C335.52 412.49 339.75 433.42 339.22 450.29C339.157 452.705 338.963 455.116 338.64 457.51C337.84 463.24 336.21 467.98 333.34 470.66" stroke="#001E2B" stroke-linecap="round" stroke-linejoin="round"/>
<path d="M374.78 478.85L376.32 480.12" stroke="#001E2B" stroke-miterlimit="10" stroke-linecap="round"/>
<path d="M379.42 482.74C383.688 486.298 387.698 490.154 391.42 494.28C395.51 499.12 405.64 508.28 409.3 518.28" stroke="#001E2B" stroke-miterlimit="10" stroke-linecap="round" stroke-dasharray="4.06 4.06"/>
<path d="M409.89 520.19C410.072 520.848 410.219 521.516 410.33 522.19" stroke="#001E2B" stroke-miterlimit="10" stroke-linecap="round"/>
<path d="M398 566.71L429.82 594.28L419.35 604.28L388.44 575L387.72 574.32C387.72 574.32 392.11 573.28 398 566.71Z" fill="#001E2B"/>
<path d="M457.23 565.27C461.477 565.27 464.92 561.827 464.92 557.58C464.92 553.333 461.477 549.89 457.23 549.89C452.983 549.89 449.54 553.333 449.54 557.58C449.54 561.827 452.983 565.27 457.23 565.27Z" fill="#00ED64" stroke="#001E2B" stroke-linecap="round" stroke-linejoin="round"/>
<path d="M454.84 559.13C455.387 559.13 455.83 558.687 455.83 558.14C455.83 557.593 455.387 557.15 454.84 557.15C454.293 557.15 453.85 557.593 453.85 558.14C453.85 558.687 454.293 559.13 454.84 559.13Z" fill="#001E2B"/>
<path d="M457.3 556.11C457.847 556.11 458.29 555.667 458.29 555.12C458.29 554.573 457.847 554.13 457.3 554.13C456.753 554.13 456.31 554.573 456.31 555.12C456.31 555.667 456.753 556.11 457.3 556.11Z" fill="#001E2B"/>
<path d="M457.52 561.32C458.067 561.32 458.51 560.877 458.51 560.33C458.51 559.783 458.067 559.34 457.52 559.34C456.973 559.34 456.53 559.783 456.53 560.33C456.53 560.877 456.973 561.32 457.52 561.32Z" fill="#001E2B"/>
<path d="M459.99 558.3C460.537 558.3 460.98 557.857 460.98 557.31C460.98 556.763 460.537 556.32 459.99 556.32C459.443 556.32 459 556.763 459 557.31C459 557.857 459.443 558.3 459.99 558.3Z" fill="#001E2B"/>
<path d="M471.1 576.59C475.347 576.59 478.79 573.147 478.79 568.9C478.79 564.653 475.347 561.21 471.1 561.21C466.853 561.21 463.41 564.653 463.41 568.9C463.41 573.147 466.853 576.59 471.1 576.59Z" fill="#00ED64" stroke="#001E2B" stroke-linecap="round" stroke-linejoin="round"/>
<path d="M468.7 570.45C469.247 570.45 469.69 570.007 469.69 569.46C469.69 568.913 469.247 568.47 468.7 568.47C468.153 568.47 467.71 568.913 467.71 569.46C467.71 570.007 468.153 570.45 468.7 570.45Z" fill="#001E2B"/>
<path d="M471.17 567.43C471.717 567.43 472.16 566.987 472.16 566.44C472.16 565.893 471.717 565.45 471.17 565.45C470.623 565.45 470.18 565.893 470.18 566.44C470.18 566.987 470.623 567.43 471.17 567.43Z" fill="#001E2B"/>
<path d="M471.39 572.64C471.937 572.64 472.38 572.197 472.38 571.65C472.38 571.103 471.937 570.66 471.39 570.66C470.843 570.66 470.4 571.103 470.4 571.65C470.4 572.197 470.843 572.64 471.39 572.64Z" fill="#001E2B"/>
<path d="M473.85 569.63C474.397 569.63 474.84 569.187 474.84 568.64C474.84 568.093 474.397 567.65 473.85 567.65C473.303 567.65 472.86 568.093 472.86 568.64C472.86 569.187 473.303 569.63 473.85 569.63Z" fill="#001E2B"/>
<path d="M384.2 483.13C393.49 474.21 395.39 457.85 395.01 449.94C394.63 442.03 392.85 430.42 398.21 419.28C392.34 431.94 391.47 435.44 392 445.59C392.53 455.74 382.66 475.73 376.17 476.12C376.65 476.33 384.2 483.13 384.2 483.13Z" fill="#001E2B"/>
</svg>
